FILE "Uresei Yatsura - Dear My Friends (demo) (1994)(Game Arts)(JP).img" BINARY
  TRACK 01 MODE1/2352
    INDEX 01 00:00:00
  TRACK 02 AUDIO
    PREGAP 00:02:00
    ISRC GAJPN9400002
    INDEX 01 00:34:34
  TRACK 03 AUDIO
    ISRC GAJPN9400003
    INDEX 00 02:31:72
    INDEX 01 02:33:72
